Coordinates
version=1
nRows=9
nColumns=24
inDegrees=yes

Units are S.I. units (second, meters, Newtons, ...)
Angles are in degrees.

endheader
time	pelvis_tilt	pelvis_list	pelvis_rotation	pelvis_tx	pelvis_ty	pelvis_tz	hip_flexion_r	hip_adduction_r	hip_rotation_r	knee_angle_r	ankle_angle_r	subtalar_angle_r	mtp_angle_r	hip_flexion_l	hip_adduction_l	hip_rotation_l	knee_angle_l	ankle_angle_l	subtalar_angle_l	mtp_angle_l	lumbar_extension	lumbar_bending	lumbar_rotation
      7.00000000	     66.12488820	    -15.26600156	      3.64860092	      0.54520538	      0.95262857	     -0.23398821	     -2.05787587	    -10.51592283	    -16.67669955	    -61.22243672	    -17.35641820	      0.00000000	      0.00000000	      4.80471454	     -9.73826253	      6.79715789	    -62.17221634	    -25.95845287	      0.00000000	      0.00000000	      0.00000000	      0.00000000	      0.00000000
      7.01000000	     66.16375894	    -15.27968541	      3.64475388	      0.54519722	      0.95263036	     -0.23399302	     -2.08913697	    -10.50051266	    -16.57496351	    -61.25346771	    -17.34215023	      0.00000000	      0.00000000	      4.75932500	     -9.81815297	      6.84032904	    -62.37063283	    -25.94574307	      0.00000000	      0.00000000	      0.00000000	      0.00000000	      0.00000000
      7.02000000	     66.16752308	    -15.28825586	      3.64365643	      0.54519377	      0.95262582	     -0.23399052	     -2.09516934	    -10.48689145	    -16.46963504	    -61.28131437	    -17.31951805	      0.00000000	      0.00000000	      4.76002851	     -9.88902133	      6.91800202	    -62.57434770	    -25.94085912	      0.00000000	      0.00000000	      0.00000000	      0.00000000	      0.00000000
      7.03000000	     66.13317748	    -15.28990366	      3.64391451	      0.54521212	      0.95258007	     -0.23399691	     -2.07218280	    -10.47844032	    -16.36910413	    -61.30613592	    -17.29399161	      0.00000000	      0.00000000	      4.80916403	     -9.94845075	      7.02927198	    -62.78180824	    -25.94527137	      0.00000000	      0.00000000	      0.00000000	      0.00000000	      0.00000000
      7.04000000	     66.06693887	    -15.28293257	      3.64584412	      0.54525541	      0.95249016	     -0.23400950	     -2.01707240	    -10.47739744	    -16.28294001	    -61.32703803	    -17.27331526	      0.00000000	      0.00000000	      4.89950708	     -9.99792178	      7.16959192	    -62.98960627	    -25.95873055	      0.00000000	      0.00000000	      0.00000000	      0.00000000	      0.00000000
      7.05000000	     65.98146390	    -15.26645632	      3.65071063	      0.54528887	      0.95240687	     -0.23400584	     -1.93117740	    -10.48414845	    -16.21783328	    -61.34278126	    -17.26456700	      0.00000000	      0.00000000	      5.01745088	    -10.04208004	      7.33198849	    -63.19374428	    -25.97937432	      0.00000000	      0.00000000	      0.00000000	      0.00000000	      0.00000000
      7.06000000	     65.89040447	    -15.24175902	      3.65905861	      0.54526243	      0.95237374	     -0.23397847	     -1.82442328	    -10.49766857	    -16.17456972	    -61.35354984	    -17.27143689	      0.00000000	      0.00000000	      5.14663223	    -10.08769478	      7.50880321	    -63.39141319	    -26.00410331	      0.00000000	      0.00000000	      0.00000000	      0.00000000	      0.00000000
      7.07000000	     65.80473987	    -15.21372648	      3.66997227	      0.54518527	      0.95236348	     -0.23394992	     -1.71406695	    -10.51707896	    -16.14818891	    -61.36140821	    -17.29289973	      0.00000000	      0.00000000	      5.27089343	    -10.14192389	      7.69329232	    -63.58213728	    -26.02925324	      0.00000000	      0.00000000	      0.00000000	      0.00000000	      0.00000000
      7.08000000	     65.73208816	    -15.18974727	      3.68154930	      0.54512819	      0.95231495	     -0.23394828	     -1.61780818	    -10.54165447	    -16.13162241	    -61.36912007	    -17.32376470	      0.00000000	      0.00000000	      5.37711939	    -10.20941570	      7.88066102	    -63.76748619	    -26.05150168	      0.00000000	      0.00000000	      0.00000000	      0.00000000	      0.00000000
